Coordinates
version=1
nRows=9
nColumns=24
inDegrees=yes

Units are S.I. units (second, meters, Newtons, ...)
Angles are in degrees.

endheader
time	pelvis_tilt	pelvis_list	pelvis_rotation	pelvis_tx	pelvis_ty	pelvis_tz	hip_flexion_r	hip_adduction_r	hip_rotation_r	knee_angle_r	ankle_angle_r	subtalar_angle_r	mtp_angle_r	hip_flexion_l	hip_adduction_l	hip_rotation_l	knee_angle_l	ankle_angle_l	subtalar_angle_l	mtp_angle_l	lumbar_extension	lumbar_bending	lumbar_rotation
      0.01000000	     49.01209664	      2.52967452	      0.22218116	      0.74998640	      0.96242705	     -0.27480646	     17.58669098	    -14.66834643	      6.28714382	    -62.74728571	      7.03987514	     16.21744195	    -34.76196916	     26.09336402	     -5.13831347	     -0.35084460	     -6.83194168	    -13.02503230	     12.05842216	    -16.77935735	      0.00000000	      0.00000000	      0.00000000
      0.02000000	     48.92611052	      2.46810172	      0.17959635	      0.74986509	      0.96224143	     -0.27476025	     17.68487567	    -14.59192866	      6.32002521	    -62.74368946	      6.80155179	     15.94019806	    -35.97213774	     26.19939139	     -5.21368547	     -0.33991922	     -6.87060229	    -13.00718349	     12.07517730	    -16.75621734	      0.00000000	      0.00000000	      0.00000000
      0.03000000	     48.90558747	      2.42957210	      0.15682631	      0.74985785	      0.96214325	     -0.27471097	     17.71724669	    -14.54972126	      6.32593269	    -62.82936610	      6.87563070	     15.89616814	    -35.83703548	     26.23050498	     -5.25943847	     -0.33071820	     -6.89051654	    -12.99590032	     12.08465267	    -16.76553891	      0.00000000	      0.00000000	      0.00000000
      0.04000000	     48.93051859	      2.41260086	      0.15118339	      0.74990985	      0.96212381	     -0.27467172	     17.71041547	    -14.53396496	      6.31437164	    -62.96347768	      7.13899176	     16.01156869	    -34.79264255	     26.20925544	     -5.27740125	     -0.32195486	     -6.89771286	    -12.99005547	     12.08828532	    -16.79494371	      0.00000000	      0.00000000	      0.00000000
      0.05000000	     48.97528501	      2.41392714	      0.15748790	      0.74993906	      0.96215995	     -0.27465773	     17.68750105	    -14.53730932	      6.29573403	    -63.10213327	      7.45398592	     16.20139435	    -33.35067987	     26.16341958	     -5.27179916	     -0.31260048	     -6.89766293	    -12.98821708	     12.08759218	    -16.83016198	      0.00000000	      0.00000000	      0.00000000
      0.06000000	     49.01623620	      2.42796170	      0.16907321	      0.74990707	      0.96221732	     -0.27466973	     17.66199745	    -14.55383095	      6.27826282	    -63.21033958	      7.70682672	     16.38959788	    -31.97920921	     26.11883789	     -5.24984886	     -0.30236298	     -6.89397822	    -12.98889656	     12.08387950	    -16.85876487	      0.00000000	      0.00000000	      0.00000000
      0.07000000	     49.03844039	      2.44764729	      0.17979665	      0.74985002	      0.96225755	     -0.27469173	     17.63991446	    -14.57778283	      6.26630558	    -63.26727082	      7.82993437	     16.52092391	    -31.02638682	     26.09300888	     -5.22077621	     -0.29172643	     -6.88891479	    -12.99081300	     12.07823219	    -16.87264917	      0.00000000	      0.00000000	      0.00000000
      0.08000000	     49.03833734	      2.46626274	      0.18587220	      0.74982088	      0.96225659	     -0.27471247	     17.62438023	    -14.60269176	      6.26032990	    -63.26689078	      7.80760357	     16.56563890	    -30.68379711	     26.09162879	     -5.19349731	     -0.28173666	     -6.88425960	    -12.99314343	     12.07157866	    -16.86920611	      0.00000000	      0.00000000	      0.00000000
      0.09000000	     49.02168265	      2.47889524	      0.18668595	      0.74982463	      0.96222778	     -0.27473344	     17.61817909	    -14.62230812	      6.25867034	    -63.21579647	      7.66705794	     16.51887112	    -30.98381369	     26.10964535	     -5.17429036	     -0.27375113	     -6.88147702	    -12.99566669	     12.06464220	    -16.85122469	      0.00000000	      0.00000000	      0.00000000
